# xmcd CD database file
#
# Track frame offsets:
#	150
#	9736
#	23303
#	38903
#	55558
#	67248
#	80359
#	96279
#	108560
#	118535
#	130899
#	142121
#	156662
#	168254
#	184131
#	196467
#	206042
#	216900
#	229732
#	245682
#	258448
#	270685
#	286983
#	298153
#	311339
#
# Disc length: 4305 seconds
#
# Revision: 2
# Processed by: cddbd v1.5.2PL0 Copyright (c) Steve Scherf et al.
# Submitted via: CDex 1.77
#
DISCID=7c10cf19
DTITLE=Various Artist - Best Love Song Of 30 Years Before Vol.2 -9
DYEAR=1900
DGENRE=Country
TTITLE0=Strangers In The Night
TTITLE1=Danny Boy
TTITLE2=Too Young
TTITLE3=Alone Again
TTITLE4=Sho-jo-ji
TTITLE5=Cachito
TTITLE6=Release Me
TTITLE7=Evergreen Tree
TTITLE8=Love Letter In The Sand
TTITLE9=Teen Angel
TTITLE10=Lonely Boy
TTITLE11=What Will Marie Say
TTITLE12=More
TTITLE13=Puff
TTITLE14=Mr. Lonely
TTITLE15=Don't Be Cruel
TTITLE16=Venus
TTITLE17=Spanish Eyes
TTITLE18=Cruel War
TTITLE19=My Prayer
TTITLE20=Roses Are Red
TTITLE21=If You Don't Know Me By Now
TTITLE22=Cathy's Clown
TTITLE23=Spanish Harlem
TTITLE24=Peggy Sue
EXTD=
EXTT0=
EXTT1=
EXTT2=
EXTT3=
EXTT4=
EXTT5=
EXTT6=
EXTT7=
EXTT8=
EXTT9=
EXTT10=
EXTT11=
EXTT12=
EXTT13=
EXTT14=
EXTT15=
EXTT16=
EXTT17=
EXTT18=
EXTT19=
EXTT20=
EXTT21=
EXTT22=
EXTT23=
EXTT24=
PLAYORDER=
